<?xml version="1.0" encoding="UTF-8"?>
<svg width="450" height="220" version="1.1" viewbox="0 0 450 220" xmlns="http://www.w3.org/2000/svg" xmlns:cc="http://creativecommons.org/ns#" xmlns:dc="http://purl.org/dc/elements/1.1/" xmlns:rdf="http://www.w3.org/1999/02/22-rdf-syntax-ns#" xmlns:xlink="http://www.w3.org/1999/xlink">
 <defs>
  <path id="a" d="M0 0h450v220H0z"/>
 </defs>
 <g fill="none" fill-rule="evenodd">
  <mask id="b" fill="#ffffff">
   <use width="100%" height="100%" xlink:href="#a"/>
  </mask>
  <use width="100%" height="100%" fill="#382ae1" xlink:href="#a"/>
  <g fill-rule="nonzero">
   <path d="m218.81 46v13.368h1.685v3.623h6.303v77.983l12.758 6.699v-12.891h3.046v14.545l2.984 1.543v112.91l-213.69 2.436v-72.237h7.013v-69.457h2.548v-9.55h3.045v9.55h14.15l-1e-3 0.014v0.196c-0.01 2.072-0.088 19.036-0.094 31.525v3.018c3e-3 5.998 0.028 10.37 0.094 10.445s0.784 0.104 1.747 0.108h0.5c2.152-8e-3 5.071-0.108 5.071-0.108v36.439h5.786v-129.76h7.379v-7.156h3.045v7.157h23.111v6.395h8.79v-13.55h3.045v13.55h4.314v23.771h10.353v42.63h12.18v38.692h6.384v-80.419h8.04v-12.313h3.044v12.312h22.117v-44.446h6.455v-3.654h25.75v-13.368zm-202.97 101.49v4.151h3.198l6.435 114.26h-33.475l6.445-114.26h2.517v-4.151h14.88z" fill="#1e1fcd" mask="url(#b)"/>
   <path d="m422.81 82v13.368h1.685v3.623h6.303v77.983l12.758 6.699v-12.891h3.046v14.545l2.984 1.543v112.91l-213.69 2.436v-72.237h7.013v-69.457h2.548v-9.55h3.045v9.55h14.15l-1e-3 0.014v0.196c-0.01 2.072-0.088 19.036-0.094 31.525v3.018c3e-3 5.998 0.028 10.37 0.094 10.445s0.784 0.104 1.747 0.108h0.5c2.152-8e-3 5.071-0.108 5.071-0.108v36.439h5.786v-129.76h7.379v-7.156h3.045v7.156h23.111v6.395h8.79v-13.55h3.045v13.55h4.314v23.771h10.353v42.63h12.18v38.692h6.384v-80.419h8.04v-12.312h3.044v12.312h22.117v-44.446h6.455v-3.654h25.75v-13.368zm-202.97 101.49v4.151h3.198l6.435 114.26h-33.475l6.445-114.26h2.517v-4.151z" fill="#1e1fcd" mask="url(#b)"/>
   <g mask="url(#b)">
    <path d="m224.74 27.894c-0.147-2.117-9.625 4.042-9.625 4.042s8.029-6.159 7.34-7.698c-0.688-1.54-9.734 5.196-9.734 5.196s8.257-6.351 6.982-7.707c-1.275-1.357-10.093 5.782-10.093 5.782s8.992-7.9 5.56-8.092c-1.541-0.082-13.643 8.138-26.754 18.008 3.67 4.582 7.34 9.008 11.304 13.288 4.202-4.344 7.514-7.799 7.964-8.376 1.348-1.732 14.744-0.577 14.799-2.694s-8.826-3.08-8.826-3.08 11.23-6.552 11.083-8.669z" fill="#fff"/>
    <g fill="#231f20">
     <path d="m199.67 51.125a0.404 0.404 0 0 1-0.302-0.128c-3.524-3.812-7.12-8.037-11.332-13.316a0.421 0.421 0 0 1-0.091-0.311 0.458 0.458 0 0 1 0.165-0.284c9.698-7.332 24.837-18.081 27.002-18.081 0.485-0.046 0.942 0.234 1.12 0.687 0.293 0.825-0.734 2.346-2.083 3.877 2.514-1.677 5.028-2.97 5.817-2.126 0.186 0.2 0.273 0.471 0.238 0.742-0.064 0.751-0.917 1.833-2.055 3.033 1.725-1.017 3.34-1.787 4.083-1.594a0.77 0.77 0 0 1 0.55 0.43c0.45 0.963-1.275 2.924-3.284 4.766 2.156-1.155 4.34-2.09 5.175-1.668a0.834 0.834 0 0 1 0.468 0.715c0.137 1.98-7.157 6.561-10.286 8.43 2.863 0.395 8.01 1.375 7.964 3.355 0 1.439-3.037 1.677-7.945 1.933-2.863 0.156-6.423 0.349-6.937 1.008-0.514 0.66-3.028 3.281-7.991 8.413a0.45 0.45 0 0 1-0.276 0.12zm-10.707-13.627c3.955 4.949 7.34 8.972 10.717 12.6 5.817-6.01 7.34-7.679 7.624-8.018 0.697-0.916 3.322-1.1 7.551-1.329 2.496-0.137 7.139-0.384 7.157-1.118 0-1.072-4.367-2.208-8.45-2.657a0.413 0.413 0 0 1-0.358-0.33 0.421 0.421 0 0 1 0.192-0.45c5.441-3.152 11.01-7.11 10.937-8.247-0.569-0.394-4.68 1.613-8.982 4.408a0.422 0.422 0 0 1-0.477-0.687c4.138-3.171 7.496-6.534 7.184-7.194-0.615-0.303-4.799 2.144-9.093 5.36a0.422 0.422 0 0 1-0.514-0.668c2.634-2.034 6.845-5.728 6.955-6.983v-0.1c-0.514-0.57-5.074 2.208-9.551 5.818a0.432 0.432 0 0 1-0.587-0.064 0.403 0.403 0 0 1 0-0.577c3.202-2.823 6.477-6.415 6.184-7.23 0-0.083-0.211-0.12-0.376-0.129-1.257-0.064-11.543 6.653-26.113 17.595z"/>
     <path d="m153.06 68.876c-2.698 8.514 13.597 47.837 13.597 47.837l20.186-24.917c-0.45-0.77-10.653-18.493-10.653-18.493s15.057-13.92 23.452-22.59c-3.945-4.28-7.67-8.743-11.304-13.288-16.111 12.133-33.792 26.76-35.278 31.451z"/>
     <path d="m166.66 117.12h-0.1a0.394 0.394 0 0 1-0.313-0.248c-0.67-1.604-16.322-39.543-13.606-48.103 1.532-4.83 19.268-19.52 35.443-31.653a0.404 0.404 0 0 1 0.56 0.064c4.193 5.26 7.78 9.476 11.295 13.27 0.14 0.157 0.14 0.393 0 0.55-7.735 7.991-21.287 20.583-23.241 22.388a54893 54893 0 0 0 10.505 18.218c0.09 0.14 0.09 0.32 0 0.459l-20.185 24.908a0.404 0.404 0 0 1-0.358 0.147zm21.635-79.133c-15.23 11.473-33.379 26.393-34.865 31.011-2.44 7.698 11.258 41.853 13.322 46.93l19.617-24.166-10.506-18.255a0.421 0.421 0 0 1 0.083-0.504c0.146-0.137 14.827-13.746 23.176-22.296-3.376-3.666-6.826-7.716-10.827-12.72z"/>
    </g>
    <path d="m201.04 109.53c1.651 11.418 9.257 21.077 17.515 29.902 4.945 5.242 11.01 10.576 18.25 10.237 3.458-0.174 6.706-1.66 9.725-3.345a73.677 73.677 0 0 0 19.974-16.212 4.476 4.476 0 0 1-4.468-3.995 8.854 8.854 0 0 0 9.175-1.027c5.615-4.453 2.89-8.385-1.404-11.702a51.724 51.724 0 0 1-15.551-19.62c-5.359-11.97-16.002-27.96-31.765-24.313-15.157 3.5-19.268 17.082-21.36 30.553a31.9 31.9 0 0 0-0.091 9.522z" fill="#fff"/>
    <path d="m236.13 150.1c-7.111 0-13.02-5.223-17.874-10.383-7.753-8.247-15.91-18.264-17.625-30.122a32.412 32.412 0 0 1 0.064-9.696c0.918-5.773 2.376-13.169 5.835-19.162a23.56 23.56 0 0 1 15.837-11.74c7.193-1.658 20.937-0.678 32.25 24.551a51.119 51.119 0 0 0 15.424 19.465c3.211 2.483 4.716 4.665 4.734 6.882 0 1.833-1.11 3.72-3.33 5.499a9.276 9.276 0 0 1-8.854 1.384 4.12 4.12 0 0 0 3.899 2.886 0.413 0.413 0 0 1 0.395 0.239 0.403 0.403 0 0 1-0.065 0.449 73.292 73.292 0 0 1-20.084 16.358c-2.835 1.576-6.24 3.216-9.91 3.39h-0.697zm-9.295-80.773c-1.439 0-2.873 0.164-4.276 0.486-14.89 3.446-18.91 16.55-21.038 30.242a31.616 31.616 0 0 0-0.064 9.439c1.679 11.638 9.744 21.536 17.432 29.674 4.882 5.186 10.818 10.447 17.92 10.08 3.495-0.165 6.789-1.76 9.542-3.29a72.532 72.532 0 0 0 19.267-15.533 4.924 4.924 0 0 1-4.018-4.316 0.403 0.403 0 0 1 0.183-0.376 0.395 0.395 0 0 1 0.413 0 8.431 8.431 0 0 0 8.707-0.972c2.01-1.603 3.028-3.225 3.01-4.83 0-1.905-1.45-3.94-4.404-6.222a52.017 52.017 0 0 1-15.672-19.776c-9.074-20.308-19.662-24.606-27.002-24.606z" fill="#231f20"/>
    <path d="m305.85 145.37c-0.642 2.538-11.184 21.343-11.184 21.343l13.763 7.432s12.45-20.84 13.514-22.223c1.065-1.384 10.093-13.398 11.323-17.613 1.23-4.216-7.45-7.332-11.01-6.993-3.56 0.34-15.763 15.515-16.406 18.054z" fill="#fff"/>
    <g fill="#231f20">
     <path d="m308.41 174.57a0.361 0.361 0 0 1-0.193-0.055l-13.762-7.432a0.403 0.403 0 0 1-0.202-0.257 0.394 0.394 0 0 1 0-0.32c3.67-6.48 10.634-19.246 11.139-21.234 0.679-2.694 13.02-18.044 16.744-18.328 2.707-0.23 8.35 1.41 10.616 4.15a3.598 3.598 0 0 1 0.844 3.373c-1.312 4.582-11.295 17.632-11.386 17.76-1.046 1.348-13.369 21.994-13.497 22.178a0.395 0.395 0 0 1-0.303 0.165zm-13.166-8.028 13.02 7.047c1.678-2.813 12.33-20.62 13.33-21.92 2.102-2.75 10.149-13.637 11.25-17.477a2.747 2.747 0 0 0-0.689-2.611c-2.064-2.502-7.431-4.06-9.89-3.85-3.358 0.294-15.451 15.58-16.011 17.742-0.606 2.392-9.487 18.347-11.01 21.069z"/>
     <path d="m301.9 153.5-12.295 14.975-26.516-17.751-11.295 21.004s37.554 28.161 42.876 25.467c5.321-2.694 21.442-35.924 21.442-35.924l-14.212-7.77z"/>
     <path d="m293.81 197.76c-7.744 0-38.6-22.965-42.27-25.714a0.412 0.412 0 0 1-0.11-0.514l11.294-21.004a0.404 0.404 0 0 1 0.578-0.147l26.195 17.55 12.066-14.663a0.395 0.395 0 0 1 0.504-0.1l14.258 7.77a0.412 0.412 0 0 1 0.165 0.532c-0.66 1.366-16.267 33.385-21.662 36.107-0.32 0.141-0.67 0.204-1.018 0.183zm-41.509-26.154c10.607 7.927 38.031 27.327 42.206 25.229 4.853-2.466 19.387-31.855 21.103-35.392l-13.616-7.433-12.084 14.718a0.386 0.386 0 0 1-0.532 0.083l-26.158-17.513zm60.85-54.729-0.12 36.62h17.351v-36.62z"/>
     <path d="m330.39 153.94h-17.35a0.404 0.404 0 0 1-0.404-0.412l0.11-36.657a0.413 0.413 0 0 1 0.413-0.403h17.23c0.224 0 0.404 0.18 0.404 0.403v36.657a0.403 0.403 0 0 1-0.403 0.412zm-16.938-0.806h16.516v-35.85h-16.424z"/>
    </g>
    <path d="m314.92 120.11-0.091 28.776h13.781v-28.776z" fill="#fff"/>
    <path d="m328.61 149.3h-13.763a0.404 0.404 0 0 1-0.294-0.119 0.403 0.403 0 0 1-0.119-0.302l0.083-28.767a0.422 0.422 0 0 1 0.422-0.412h13.689c0.228 0 0.413 0.184 0.413 0.412v28.776a0.413 0.413 0 0 1-0.431 0.412zm-13.36-0.861h12.938v-27.905h-12.846l-0.091 27.905z" fill="#231f20"/>
    <path d="m305.1 147.28s-2.587-12.335 1.294-14.269c3.88-1.933 17.221-4.197 15.157-1.173s-9.294 4.894-9.294 4.894 1.486 4.316-0.147 7.377" fill="#fff"/>
    <path d="m305.1 147.69a0.404 0.404 0 0 1-0.404-0.33c-0.11-0.513-2.615-12.674 1.514-14.727 3.35-1.658 14.157-3.794 15.735-1.997a1.09 1.09 0 0 1-0.055 1.438c-1.835 2.75-7.496 4.49-9.11 4.95 0.339 1.2 1.11 4.636-0.303 7.33a0.422 0.422 0 0 1-0.57 0.165 0.43 0.43 0 0 1-0.173-0.568c1.532-2.859 0.137-6.992 0.119-7.038a0.412 0.412 0 0 1 0-0.33 0.44 0.44 0 0 1 0.266-0.21c0.073 0 7.101-1.833 9.056-4.72 0.137-0.202 0.174-0.348 0.11-0.422-0.991-1.136-11.01 0.367-14.735 2.2-2.946 1.466-1.762 10.456-1.065 13.801a0.412 0.412 0 0 1-0.32 0.495z" fill="#231f20"/>
    <path d="m209.17 123.32-22.855-39.185-25.69 28.491 9.541 20.546s-14.68 34.705-14.68 102.73c0 0 78.154-0.339 97.825-0.339l-25.69-39.91s6.423-18.493 9.735-23.112l19.13 10.402 22.37-30.434-69.686-29.188z" fill="#75ecca"/>
    <g fill="#231f20">
     <path d="m208.84 160.67c12.615 7.331 15.597-22.47 16.157-28.922 0.256-1.775 0.15-3.583-0.312-5.316-0.725-2.199-2.422-3.903-4.12-5.498-2.027-1.833-4.367-3.757-7.129-3.876a8.26 8.26 0 0 0-6.578 3.436 20.15 20.15 0 0 0-3.156 6.983c-2.973 10.365-2.863 21.307 2.871 30.728a6.591 6.591 0 0 0 1.991 2.263z"/>
     <path d="m212.61 162.23a7.934 7.934 0 0 1-3.973-1.21l-0.285-0.174a6.903 6.903 0 0 1-2.12-2.401c-5.256-8.642-6.266-19.373-2.917-31.048a20.562 20.562 0 0 1 3.22-7.12 8.6 8.6 0 0 1 6.919-3.593c2.826 0.119 5.22 1.988 7.34 3.986 1.725 1.586 3.468 3.336 4.23 5.636 0.473 1.793 0.586 3.662 0.33 5.499-0.853 9.613-3.303 26.264-10.093 29.774a5.725 5.725 0 0 1-2.651 0.65zm0.568-44.74a7.875 7.875 0 0 0-6.01 3.281 19.801 19.801 0 0 0-3.073 6.846c-3.294 11.455-2.312 21.994 2.826 30.406a6.17 6.17 0 0 0 1.835 2.136l0.266 0.155c2.184 1.274 4.11 1.448 5.881 0.532 4.716-2.438 8.258-13.05 9.671-29.133a13.135 13.135 0 0 0-0.294-5.16c-0.697-2.116-2.358-3.775-4.01-5.296-2.054-1.888-4.302-3.666-6.871-3.767h-0.22zm33.306-12.701c1.165 4.224-0.743 9.604-3.606 12.729-1.908 2.062-6.092 2.612-6.936-0.743a17 17 0 0 1 2.174-13.04c1.835-3.015 5.35-4.738 7.607-0.862 0.335 0.603 0.591 1.247 0.761 1.916z"/>
     <path d="m239.08 119.58a4.414 4.414 0 0 1-1.046-0.12 3.393 3.393 0 0 1-2.487-2.593 17.477 17.477 0 0 1 2.184-13.334c1.285-2.062 3.101-3.308 4.799-3.299 0.963 0 2.349 0.45 3.505 2.447 0.364 0.63 0.648 1.305 0.844 2.007 1.266 4.582-0.918 10.08-3.67 13.105a5.729 5.729 0 0 1-4.13 1.787zm3.404-18.54c-1.395 0-2.945 1.11-4.065 2.906a16.634 16.634 0 0 0-2.083 12.729c0.19 0.978 0.93 1.758 1.9 1.997a4.765 4.765 0 0 0 4.34-1.43c2.587-2.803 4.697-8.091 3.523-12.343a7.711 7.711 0 0 0-0.762-1.833c-0.78-1.338-1.725-2.025-2.816-2.035l-0.037 0.01z"/>
    </g>
    <path d="m226.81 123.7c-1.836 7.03-3.67 23.04-15.369 14.663a14.835 14.835 0 0 1-3.101-3.317c-5.762-7.67-4.12-12.51-1.138-20.931 1.285-3.666 2.395-7.332 3.67-10.997 1.276-3.666 3.377-7.112 5.12-10.585-0.064 0.12 5.734 0.916 11.533-1.714s10.597-5.36 10.597-5.36c1.57 2.345 3.267 4.123 4.102 6.91 0.77 2.702 0.992 5.53 0.651 8.32-0.734 6.846-3.477 14.25-6.588 20.363-3.11 6.112-9.477 2.648-9.477 2.648z" fill="#fff"/>
    <g fill="#231f20">
     <path d="m217.35 141.17c-1.835 0-3.881-0.824-6.157-2.456a15.32 15.32 0 0 1-3.193-3.409c-5.936-7.908-4.147-12.958-1.192-21.315 0.614-1.76 1.202-3.565 1.77-5.307 0.615-1.878 1.248-3.812 1.927-5.709a60.45 60.45 0 0 1 3.624-7.725c0.514-0.972 1.028-1.943 1.514-2.914a0.413 0.413 0 0 1 0.56-0.184 21.125 21.125 0 0 0 11.148-1.723 155.56 155.56 0 0 0 10.56-5.351 0.432 0.432 0 0 1 0.56 0.137c0.395 0.587 0.79 1.136 1.184 1.677a17.241 17.241 0 0 1 2.972 5.334c0.783 2.76 1.01 5.647 0.67 8.495-0.67 6.13-3.018 13.416-6.633 20.5a6.695 6.695 0 0 1-3.973 3.602 8.515 8.515 0 0 1-5.625-0.504 96.92 96.92 0 0 0-0.568 2.391c-1.212 5.251-2.863 12.455-7.24 14.104a5.51 5.51 0 0 1-1.908 0.357zm-1.101-48.176c-0.44 0.917-0.918 1.76-1.376 2.64a60.01 60.01 0 0 0-3.579 7.624c-0.67 1.833-1.302 3.813-1.917 5.682-0.615 1.87-1.156 3.556-1.78 5.324-2.964 8.377-4.588 12.986 1.082 20.537a14.55 14.55 0 0 0 3.01 3.235c2.88 2.071 5.34 2.75 7.34 1.998 3.954-1.494 5.505-8.43 6.716-13.499 0.248-1.063 0.468-2.062 0.698-2.914a0.43 0.43 0 0 1 0.605-0.266 8.01 8.01 0 0 0 5.505 0.67 5.842 5.842 0 0 0 3.46-3.172c3.568-7 5.899-14.186 6.55-20.216a20.66 20.66 0 0 0-0.642-8.156 16.573 16.573 0 0 0-2.881-5.086c-0.33-0.449-0.67-0.916-0.99-1.384a164.07 164.07 0 0 1-10.295 5.187 22.044 22.044 0 0 1-11.506 1.796z"/>
     <path d="m224.88 130.5s-5.679-1.292-8.257-6.011c-2.578-4.72-1.018-8.34-1.018-8.34s4.954 5.728 11.22 7.579l-1.944 6.772z"/>
     <path d="m224.88 130.9h-0.091c-0.239-0.056-5.89-1.384-8.533-6.205-2.642-4.82-1.11-8.54-1.046-8.697a0.404 0.404 0 0 1 0.312-0.238 0.422 0.422 0 0 1 0.367 0.129c0 0.055 4.964 5.663 11.01 7.46a0.404 0.404 0 0 1 0.276 0.503l-1.9 6.754a0.404 0.404 0 0 1-0.394 0.293zm-9.12-13.958a10.217 10.217 0 0 0 1.203 7.332c2.1 3.83 6.358 5.333 7.633 5.709l1.716-6.003c-5.074-1.622-9.184-5.599-10.551-7.038zm12.598-4.792a7.64 7.64 0 0 1-3.275-1.027 0.40603 0.40603 0 1 1 0.403-0.705c0.707 0.403 2.753 1.32 3.67 0.723 0.597-0.384-0.055-4.15-1.431-8.247a0.406 0.406 0 1 1 0.77-0.257c0.827 2.447 2.579 8.248 1.093 9.164-0.369 0.23-0.795 0.351-1.23 0.349z"/>
     <path d="m226.68 117.12a6.135 6.135 0 0 1-2.753-0.605c-2.294-1.137-3.67-3.803-4.148-7.927a0.413 0.413 0 0 1 0.358-0.45 0.404 0.404 0 0 1 0.45 0.358c0.431 3.83 1.67 6.287 3.67 7.331 3.055 1.512 6.955-0.779 6.991-0.797a0.404 0.404 0 0 1 0.56 0.138 0.412 0.412 0 0 1-0.138 0.559 11.02 11.02 0 0 1-4.99 1.393zm0.43-18.292a0.404 0.404 0 0 1-0.403-0.376c-0.065-0.916-0.33-1.475-0.808-1.714-0.917-0.476-2.633 0.385-3.202 0.761a0.407 0.407 0 0 1-0.45-0.678c0.101-0.064 2.45-1.586 4.01-0.807a2.611 2.611 0 0 1 1.257 2.383 0.403 0.403 0 0 1-0.376 0.43h-0.028zm10.176 4.545a0.404 0.404 0 0 1-0.404-0.366s-0.184-2.016-1.33-2.75c-0.991-0.65-2.148 0.834-2.157 0.853a0.404 0.404 0 0 1-0.569 0.073 0.403 0.403 0 0 1-0.082-0.568c0.56-0.733 1.954-1.888 3.257-1.036 1.477 0.972 1.68 3.281 1.688 3.373a0.403 0.403 0 0 1-0.367 0.44zm-32.27-2.217a8.138 8.138 0 0 0 0.735 4.26c1.302 2.411 4.514 3.392 7.138 2.613 6.854-2.026 10.148-15.048 4.964-20.162-4.817-4.747-10.286 2.75-11.414 7.176-0.523 2.08-1.349 4.005-1.422 6.113z"/>
     <path d="m211.05 108.7a6.424 6.424 0 0 1-5.661-3.089 8.34 8.34 0 0 1-0.78-4.472c0.126-1.534 0.434-3.047 0.917-4.509 0.166-0.559 0.33-1.118 0.477-1.677 0.799-3.079 3.762-7.853 7.258-8.816a4.83 4.83 0 0 1 4.835 1.448c2.505 2.466 3.322 6.929 2.138 11.648-1.183 4.72-3.964 8.248-7.267 9.164a7.137 7.137 0 0 1-1.917 0.303zm-5.634-7.524a7.653 7.653 0 0 0 0.688 4.06 5.83 5.83 0 0 0 6.67 2.41c3.038-0.917 5.607-4.197 6.708-8.605 1.1-4.408 0.376-8.615-1.918-10.878a4.03 4.03 0 0 0-4.055-1.256c-3.156 0.917-5.955 5.435-6.689 8.248a59.1 59.1 0 0 1-0.477 1.705 18.63 18.63 0 0 0-0.918 4.316z"/>
     <path d="m243.12 109.21a0.918 0.918 0 0 1-0.788-1.393c0.1-0.165 10.276-16.88 12.02-27.3 0.632-3.776-1.047-7.606-4.726-10.805-5.028-4.362-12.533-6.314-17.846-4.637-9.45 2.988-14.478 24.743-14.533 24.927a0.918 0.918 0 0 1-1.79-0.403c0.212-0.917 5.322-22.975 15.773-26.274 5.973-1.879 14.029 0.174 19.598 5.003 4.184 3.666 6.083 8.065 5.34 12.491-1.835 10.777-11.845 27.254-12.267 27.951a0.918 0.918 0 0 1-0.78 0.44z"/>
     <path d="m292.87 239a31.312 31.312 0 0 1-9.68-1.567 31.764 31.764 0 0 1-10.156-5.902c-5.092-4.115-9.579-9.027-13.919-13.746-2.752-3.015-5.597-6.13-8.57-9.008-9.312-9.018-18.56-13.82-27.525-14.26-12.056-0.605-22.745 6.278-32.489 13.801-0.917 0.733-1.908 1.494-2.881 2.264-7.881 6.24-16.818 13.306-27.828 11.648-7.505-1.128-13.332-6.296-16.892-10.43-8.762-10.18-12.845-24.743-10.817-38.865 2.147-15.212 10.634-25.934 25.232-31.873 12.083-4.911 23.488-11.785 34.526-18.429l0.091-0.045c6.836-4.124 14.093-9.403 16.048-17.32a0.47151 0.47151 0 0 1 0.917 0.22c-2.037 8.247-9.469 13.663-16.47 17.878l-0.082 0.055c-11.065 6.663-22.506 13.554-34.654 18.494-14.277 5.8-22.571 16.275-24.672 31.158-1.964 13.856 2 28.106 10.57 38.086 3.459 4.023 9.101 9.045 16.331 10.127 10.616 1.603 19.011-5.04 27.122-11.456l2.89-2.272c9.891-7.634 20.745-14.617 33.095-13.994 9.175 0.458 18.625 5.343 28.103 14.516 2.991 2.905 5.845 6.03 8.607 9.054 4.312 4.729 8.771 9.614 13.817 13.682a30.956 30.956 0 0 0 9.854 5.746c12.396 3.996 24.773 0.064 36.875-11.693 17.956-17.485 28.076-43.988 27.755-72.8-0.147-13.453-2.66-23.965-7.689-32.148-2.027-3.309-4.587-6.993-8.753-8.835-2.128-0.916-7.12-1.264-9.046 1.44-0.734 1.035-0.808 2.254-0.918 3.802 0 0.67-0.092 1.42-0.193 2.236a0.463 0.463 0 0 1-0.917-0.119c0.11-0.788 0.147-1.493 0.193-2.172 0.1-1.63 0.192-3.033 1.082-4.28 2.239-3.143 7.726-2.813 10.166-1.74 4.441 1.942 7.056 5.764 9.175 9.164 5.12 8.33 7.67 18.997 7.827 32.624 0.32 29.032-9.891 55.81-28.03 73.46-9.194 8.99-18.617 13.49-28.095 13.499zm-88.696-201.98a0.477 0.477 0 0 1-0.348-0.156 0.467 0.467 0 0 1 0-0.65c2.018-1.751 4.019-2.52 5.954-2.301a6.424 6.424 0 0 1 4.166 2.374c0.145 0.206 0.1 0.49-0.1 0.641a0.46 0.46 0 0 1-0.643-0.1 5.58 5.58 0 0 0-3.523-2.026c-1.67-0.193-3.432 0.513-5.249 2.09a0.45 0.45 0 0 1-0.257 0.128z"/>
     <path d="m231.5 185.39a0.478 0.478 0 0 1-0.192 0 0.43 0.43 0 0 1-0.184-0.569l11.579-23.185a0.417 0.417 0 0 1 0.743 0.376l-11.57 23.148a0.413 0.413 0 0 1-0.376 0.23zm-21.57 4.518c-13.259 0-28.838-4.29-29.7-4.528a0.422 0.422 0 1 1 0.22-0.806c0.284 0.073 28.103 7.744 40.967 2.84 0.218-0.08 0.46 0.031 0.541 0.248a0.403 0.403 0 0 1-0.239 0.532 34.077 34.077 0 0 1-11.79 1.714zm110.47-75.596h2v2.969h-2z"/>
     <path d="m322.4 117.68h-2a0.413 0.413 0 0 1-0.413-0.404v-2.969a0.403 0.403 0 0 1 0.413-0.403h2c0.223 0 0.404 0.18 0.404 0.403v2.97a0.403 0.403 0 0 1-0.404 0.403zm-1.596-0.816h1.193v-2.153h-1.193z"/>
    </g>
    <path d="m213.03 105.66-0.66-0.641a13.34 13.34 0 0 0 2.358-15.763l0.789-0.467a14.283 14.283 0 0 1-2.487 16.871zm30.278 12.024-0.853-0.34c2.68-6.9 2-11.995 2-12.041l0.918-0.128c0.018 0.192 0.706 5.36-2.065 12.509zm-74.068-37.905 6.647-6.787 0.655 0.64-6.646 6.788zm120.17 89.121 0.403-0.823 7.062 3.453-0.403 0.824z" fill="#fff"/>
    <path d="m38.092 50.8c-4.725 0-4.734 7.331 0 7.331 4.735 0 4.735-7.33 0-7.33zm357 8c-4.725 0-4.734 7.331 0 7.331 4.735 0 4.735-7.33 0-7.33zm-60.38-16.883a1.933 1.933 0 0 0-0.467-0.806l-0.376-0.284a1.837 1.837 0 0 0-0.918-0.257h-0.514a1.34 1.34 0 0 0-0.706 0.165c-0.23 0.07-0.435 0.2-0.596 0.376a1.43 1.43 0 0 0-0.377 0.586c-0.115 0.217-0.169 0.461-0.156 0.706l0.065 0.495c0.086 0.304 0.247 0.58 0.468 0.806l0.376 0.285c0.279 0.161 0.595 0.246 0.917 0.247h0.514c0.245 0.014 0.49-0.04 0.707-0.156 0.226-0.075 0.43-0.204 0.596-0.376a2.07 2.07 0 0 0 0.532-1.3c-0.018-0.157-0.046-0.322-0.064-0.487zm-219.15-8.568c-2.955 0-2.964 4.582 0 4.582 2.963 0 2.954-4.582 0-4.582zm264.33 44.49c-2.955 0-2.955 4.583 0 4.583 2.954 0 2.954-4.582 0-4.582z" fill="#698dff"/>
   </g>
  </g>
  <g fill="#cd7df3">
   <path d="m53.797 105.08c-0.386-0.091-0.799-0.155-1.175-0.284a3.503 3.503 0 0 1-2.514-2.392 3.662 3.662 0 0 1 0.55-2.978 6.67 6.67 0 0 1 4.423-2.896c1.184-0.266 1.716-0.201 3.597 0.257v-22.069l21.727-4.343v26.988a4.58 4.58 0 0 1-1.606 3.666 6.777 6.777 0 0 1-6.634 1.631 3.366 3.366 0 0 1-2.514-2.383 3.552 3.552 0 0 1 0.542-2.969 6.616 6.616 0 0 1 4.44-2.896 6.301 6.301 0 0 1 3.56 0.257v-15.175l-1.541 0.302a5773.3 5773.3 0 0 1-15.479 3.089c-0.284 0.055-0.33 0.165-0.33 0.421v16.093a4.92 4.92 0 0 1-2.12 4.206 7.271 7.271 0 0 1-3.467 1.411 1.58 1.58 0 0 0-0.193 0.064z"/>
   <path d="m290.83 96.066c0.119-0.238 0.22-0.485 0.357-0.705a4.393 4.393 0 0 1 1.689-1.457 9.276 9.276 0 0 1 3.67-0.99 10.104 10.104 0 0 1 3.817 0.43 6.36 6.36 0 0 1 2.165 1.165l0.174 0.137a1.63 1.63 0 0 0 0.11-0.266c0.138-0.54 0.266-1.081 0.386-1.631l2.202-10.172c0.789-3.666 1.575-7.35 2.358-11.052l0.046-0.22c0.32 0.137 0.624 0.256 0.917 0.394a17.815 17.815 0 0 1 6.368 4.985 11.484 11.484 0 0 1 2.605 6.937c0 0.72-0.036 1.439-0.11 2.154 0 0.486-0.1 0.916-0.156 1.439a0.394 0.394 0 0 1-0.055 0.165l-0.22-0.358a26.572 26.572 0 0 0-2.202-3.4 12.402 12.402 0 0 0-4.826-3.803 10.543 10.543 0 0 0-2.587-0.724h-0.065a1.42 1.42 0 0 1-0.046 0.211l-3.963 18.274a0.916 0.916 0 0 1-0.12 0.302 5.192 5.192 0 0 1-2.495 1.952 9.396 9.396 0 0 1-4.166 0.687c-0.403 0-0.798-0.055-1.202-0.091l-1.055-0.22-0.174-0.074a6.425 6.425 0 0 1-2.285-1.164 3.033 3.033 0 0 1-1.147-1.732 7.58 7.58 0 0 1-0.064-0.797z"/>
   <path d="m71.135 177.35c0-0.22 0-0.45 0.102-0.67 0.16-0.604 0.477-1.157 0.917-1.603a7.68 7.68 0 0 1 2.624-1.787 8.413 8.413 0 0 1 3.138-0.706 5.511 5.511 0 0 1 2.028 0.321l0.174 0.064c5e-3 -0.079 5e-3 -0.159 0-0.238 0-0.467-0.092-0.916-0.147-1.393-0.348-2.89-0.7-5.77-1.055-8.642-0.385-3.134-0.78-6.259-1.165-9.384v-0.183c0.284 0 0.569 0 0.835 0.064 2.281 0.227 4.479 0.977 6.423 2.19a9.643 9.643 0 0 1 3.954 4.766c0.2 0.57 0.369 1.152 0.505 1.74 0.11 0.386 0.183 0.78 0.275 1.174a0.293 0.293 0 0 1 0 0.156l-0.266-0.23a22.815 22.815 0 0 0-2.68-2.089 10.44 10.44 0 0 0-4.853-1.677 9.241 9.241 0 0 0-2.248 0.128c5e-3 0.058 5e-3 0.117 0 0.175 0.612 5.18 1.239 10.373 1.881 15.579a0.65 0.65 0 0 1 0 0.265 4.316 4.316 0 0 1-1.44 2.227 7.71 7.71 0 0 1-3.102 1.686c-0.32 0.101-0.651 0.175-0.972 0.257l-0.918 0.11h-0.145a5.4 5.4 0 0 1-2.13-0.293 2.44 2.44 0 0 1-1.375-1.054 4.634 4.634 0 0 1-0.276-0.614l-0.082-0.34z"/>
   <path d="m397.6 168.33v-0.523a2.802 2.802 0 0 0-0.523-1.328 5.832 5.832 0 0 0-1.77-1.677 6.528 6.528 0 0 0-2.303-0.917c-0.521-0.1-1.057-0.1-1.578 0h-0.138a1.108 1.108 0 0 1 0-0.183c0.092-0.358 0.183-0.706 0.284-1.045l1.835-6.415c0.67-2.328 1.35-4.655 2.019-6.983v-0.137l-0.642-0.055a11.426 11.426 0 0 0-5.13 0.916 7.402 7.402 0 0 0-3.587 3.143c-0.23 0.404-0.403 0.834-0.596 1.265-0.129 0.275-0.23 0.568-0.349 0.852a0.467 0.467 0 0 0 0 0.12l0.23-0.138c0.728-0.478 1.492-0.9 2.284-1.265a8.156 8.156 0 0 1 3.9-0.696 7.136 7.136 0 0 1 1.688 0.376 0.76 0.76 0 0 0 0 0.137c-1.113 3.861-2.217 7.72-3.312 11.574a0.53 0.53 0 0 0 0 0.211c0.078 0.682 0.367 1.322 0.825 1.833a6.045 6.045 0 0 0 2.147 1.659l0.716 0.311 0.66 0.193h0.184a4.18 4.18 0 0 0 1.652 0c0.459-0.065 0.879-0.293 1.183-0.642 0.1-0.139 0.191-0.282 0.276-0.43z"/>
  </g>
 </g>
</svg>
